<mxfile host="app.diagrams.net" agent="Mozilla/5.0 (Windows NT 10.0; Win64; x64) AppleWebKit/537.36 (KHTML, like Gecko) Chrome/135.0.0.0 Safari/537.36" version="27.0.1">
  <diagram id="f4gIdh21XFmPM1-Se4DB" name="sequenceAI">
    <mxGraphModel dx="1733" dy="876" grid="1" gridSize="10" guides="1" tooltips="1" connect="1" arrows="1" fold="1" page="1" pageScale="1" pageWidth="827" pageHeight="1169" math="0" shadow="0">
      <root>
        <mxCell id="0" />
        <mxCell id="1" parent="0" />
        <mxCell id="jenuCBQfT03LLl2gXS5s-2" value="&lt;span style=&quot;font-weight: 700;&quot;&gt;GUIAIChatInterface&lt;/span&gt;" style="rounded=0;whiteSpace=wrap;html=1;fillColor=#CC99FF;" parent="1" vertex="1">
          <mxGeometry x="269" y="30" width="150" height="30" as="geometry" />
        </mxCell>
        <mxCell id="jenuCBQfT03LLl2gXS5s-3" value="AITravelAssistant Controller" style="rounded=0;whiteSpace=wrap;html=1;fillColor=#FF6666;" parent="1" vertex="1">
          <mxGeometry x="449" y="30" width="100" height="30" as="geometry" />
        </mxCell>
        <mxCell id="xUICuqFCalUXOdbAO-LS-1" value="" style="endArrow=none;dashed=1;html=1;rounded=0;entryX=0.5;entryY=1;entryDx=0;entryDy=0;" parent="1" edge="1">
          <mxGeometry width="50" height="50" relative="1" as="geometry">
            <mxPoint x="49.33" y="740" as="sourcePoint" />
            <mxPoint x="49.33" y="80" as="targetPoint" />
          </mxGeometry>
        </mxCell>
        <mxCell id="xUICuqFCalUXOdbAO-LS-2" value="" style="endArrow=none;dashed=1;html=1;rounded=0;entryX=0.5;entryY=1;entryDx=0;entryDy=0;" parent="1" target="jenuCBQfT03LLl2gXS5s-2" edge="1">
          <mxGeometry width="50" height="50" relative="1" as="geometry">
            <mxPoint x="344" y="740" as="sourcePoint" />
            <mxPoint x="509" y="260" as="targetPoint" />
          </mxGeometry>
        </mxCell>
        <mxCell id="cKqiW5xJws_7LaVrgvn9-1" value="" style="endArrow=classic;html=1;rounded=0;" parent="1" edge="1">
          <mxGeometry width="50" height="50" relative="1" as="geometry">
            <mxPoint x="50" y="120" as="sourcePoint" />
            <mxPoint x="160" y="120" as="targetPoint" />
          </mxGeometry>
        </mxCell>
        <mxCell id="wKxu9aiF9x5gZsLea6pr-1" value="clickAIAssistantButton()" style="edgeLabel;html=1;align=center;verticalAlign=middle;resizable=0;points=[];" parent="cKqiW5xJws_7LaVrgvn9-1" connectable="0" vertex="1">
          <mxGeometry x="0.0118" y="-1" relative="1" as="geometry">
            <mxPoint x="4" y="19" as="offset" />
          </mxGeometry>
        </mxCell>
        <mxCell id="hF92NhvFWe9jXr51enrD-1" value="" style="endArrow=classic;html=1;rounded=0;" parent="1" edge="1">
          <mxGeometry width="50" height="50" relative="1" as="geometry">
            <mxPoint x="50" y="230" as="sourcePoint" />
            <mxPoint x="340" y="230" as="targetPoint" />
          </mxGeometry>
        </mxCell>
        <mxCell id="hF92NhvFWe9jXr51enrD-2" value="clickSend()" style="edgeLabel;html=1;align=center;verticalAlign=middle;resizable=0;points=[];" parent="hF92NhvFWe9jXr51enrD-1" connectable="0" vertex="1">
          <mxGeometry x="0.0118" y="-1" relative="1" as="geometry">
            <mxPoint x="3" as="offset" />
          </mxGeometry>
        </mxCell>
        <mxCell id="lYL9QEXvk2MsB_-gW5bq-1" value="" style="html=1;verticalAlign=bottom;labelBackgroundColor=none;endArrow=open;endFill=0;dashed=1;rounded=0;" parent="1" edge="1">
          <mxGeometry width="160" relative="1" as="geometry">
            <mxPoint x="500" y="380" as="sourcePoint" />
            <mxPoint x="340" y="380" as="targetPoint" />
          </mxGeometry>
        </mxCell>
        <mxCell id="gmqNdXLli_HEFks2CoKf-15" value="displaySuggestions(activities)" style="edgeLabel;html=1;align=center;verticalAlign=middle;resizable=0;points=[];" parent="lYL9QEXvk2MsB_-gW5bq-1" connectable="0" vertex="1">
          <mxGeometry x="-0.0629" y="1" relative="1" as="geometry">
            <mxPoint x="19" y="9" as="offset" />
          </mxGeometry>
        </mxCell>
        <mxCell id="lYL9QEXvk2MsB_-gW5bq-3" value="User" style="shape=umlActor;verticalLabelPosition=bottom;verticalAlign=top;html=1;" parent="1" vertex="1">
          <mxGeometry x="40" y="20" width="20" height="40" as="geometry" />
        </mxCell>
        <mxCell id="_Lc0KSwEJ1vjXrFVMQhL-1" value="" style="html=1;points=[[0,0,0,0,5],[0,1,0,0,-5],[1,0,0,0,5],[1,1,0,0,-5]];perimeter=orthogonalPerimeter;outlineConnect=0;targetShapes=umlLifeline;portConstraint=eastwest;newEdgeStyle={&quot;curved&quot;:0,&quot;rounded&quot;:0};" parent="1" vertex="1">
          <mxGeometry x="339" y="155" width="10" height="30" as="geometry" />
        </mxCell>
        <mxCell id="gmqNdXLli_HEFks2CoKf-1" value="" style="endArrow=classic;html=1;rounded=0;" parent="1" edge="1">
          <mxGeometry width="50" height="50" relative="1" as="geometry">
            <mxPoint x="50" y="210" as="sourcePoint" />
            <mxPoint x="344" y="210" as="targetPoint" />
          </mxGeometry>
        </mxCell>
        <mxCell id="gmqNdXLli_HEFks2CoKf-2" value="typeQuestion(text)" style="edgeLabel;html=1;align=center;verticalAlign=middle;resizable=0;points=[];" parent="gmqNdXLli_HEFks2CoKf-1" connectable="0" vertex="1">
          <mxGeometry x="0.0118" y="-1" relative="1" as="geometry">
            <mxPoint x="-9" as="offset" />
          </mxGeometry>
        </mxCell>
        <mxCell id="gmqNdXLli_HEFks2CoKf-3" value="" style="endArrow=classic;html=1;rounded=0;" parent="1" edge="1">
          <mxGeometry width="50" height="50" relative="1" as="geometry">
            <mxPoint x="346" y="288.67" as="sourcePoint" />
            <mxPoint x="500" y="288.67" as="targetPoint" />
          </mxGeometry>
        </mxCell>
        <mxCell id="gmqNdXLli_HEFks2CoKf-4" value="suggestActivities()" style="edgeLabel;html=1;align=center;verticalAlign=middle;resizable=0;points=[];" parent="gmqNdXLli_HEFks2CoKf-3" connectable="0" vertex="1">
          <mxGeometry x="0.0118" y="-1" relative="1" as="geometry">
            <mxPoint x="4" y="9" as="offset" />
          </mxGeometry>
        </mxCell>
        <mxCell id="gmqNdXLli_HEFks2CoKf-12" value="" style="html=1;verticalAlign=bottom;labelBackgroundColor=none;endArrow=open;endFill=0;dashed=1;rounded=0;" parent="1" edge="1">
          <mxGeometry width="160" relative="1" as="geometry">
            <mxPoint x="750" y="369" as="sourcePoint" />
            <mxPoint x="500" y="370" as="targetPoint" />
          </mxGeometry>
        </mxCell>
        <mxCell id="gmqNdXLli_HEFks2CoKf-14" value="return List&amp;lt;SuggestedActivity&amp;gt;" style="edgeLabel;html=1;align=center;verticalAlign=middle;resizable=0;points=[];" parent="gmqNdXLli_HEFks2CoKf-12" connectable="0" vertex="1">
          <mxGeometry x="-0.1067" y="1" relative="1" as="geometry">
            <mxPoint x="12" y="15" as="offset" />
          </mxGeometry>
        </mxCell>
        <mxCell id="evCZhHzDuNR3ehigeFYC-1" value="" style="endArrow=classic;html=1;rounded=0;" parent="1" edge="1">
          <mxGeometry width="50" height="50" relative="1" as="geometry">
            <mxPoint x="50" y="545" as="sourcePoint" />
            <mxPoint x="343" y="545" as="targetPoint" />
          </mxGeometry>
        </mxCell>
        <mxCell id="evCZhHzDuNR3ehigeFYC-2" value="clickAddToPlan(suggestion)" style="edgeLabel;html=1;align=center;verticalAlign=middle;resizable=0;points=[];" parent="evCZhHzDuNR3ehigeFYC-1" connectable="0" vertex="1">
          <mxGeometry x="0.0118" y="-1" relative="1" as="geometry">
            <mxPoint x="49" y="9" as="offset" />
          </mxGeometry>
        </mxCell>
        <mxCell id="jenuCBQfT03LLl2gXS5s-4" value="TripDetails" style="rounded=0;whiteSpace=wrap;html=1;fillColor=#A9C4EB;" parent="1" vertex="1">
          <mxGeometry x="589" y="30" width="90" height="30" as="geometry" />
        </mxCell>
        <mxCell id="YRKO58-k70w3WYI_yZsl-1" value="SuggestedActivity" style="rounded=0;whiteSpace=wrap;html=1;fillColor=#A9C4EB;" parent="1" vertex="1">
          <mxGeometry x="693" y="30" width="110" height="30" as="geometry" />
        </mxCell>
        <mxCell id="xUICuqFCalUXOdbAO-LS-3" value="" style="endArrow=none;dashed=1;html=1;rounded=0;entryX=0.5;entryY=1;entryDx=0;entryDy=0;" parent="1" target="jenuCBQfT03LLl2gXS5s-3" edge="1">
          <mxGeometry width="50" height="50" relative="1" as="geometry">
            <mxPoint x="499" y="720" as="sourcePoint" />
            <mxPoint x="509" y="260" as="targetPoint" />
            <Array as="points">
              <mxPoint x="499" y="230" />
            </Array>
          </mxGeometry>
        </mxCell>
        <mxCell id="xUICuqFCalUXOdbAO-LS-4" value="" style="endArrow=none;dashed=1;html=1;rounded=0;entryX=0.5;entryY=1;entryDx=0;entryDy=0;" parent="1" target="jenuCBQfT03LLl2gXS5s-4" edge="1">
          <mxGeometry width="50" height="50" relative="1" as="geometry">
            <mxPoint x="634" y="680" as="sourcePoint" />
            <mxPoint x="509" y="260" as="targetPoint" />
          </mxGeometry>
        </mxCell>
        <mxCell id="xUICuqFCalUXOdbAO-LS-5" value="" style="endArrow=none;dashed=1;html=1;rounded=0;entryX=0.5;entryY=1;entryDx=0;entryDy=0;" parent="1" edge="1">
          <mxGeometry width="50" height="50" relative="1" as="geometry">
            <mxPoint x="751" y="680" as="sourcePoint" />
            <mxPoint x="750" y="60" as="targetPoint" />
            <Array as="points">
              <mxPoint x="749" y="370" />
            </Array>
          </mxGeometry>
        </mxCell>
        <mxCell id="gmqNdXLli_HEFks2CoKf-5" value="" style="endArrow=classic;html=1;rounded=0;" parent="1" edge="1">
          <mxGeometry width="50" height="50" relative="1" as="geometry">
            <mxPoint x="498" y="306" as="sourcePoint" />
            <mxPoint x="638" y="306" as="targetPoint" />
          </mxGeometry>
        </mxCell>
        <mxCell id="gmqNdXLli_HEFks2CoKf-6" value="getTripDetails(tripId)" style="edgeLabel;html=1;align=center;verticalAlign=middle;resizable=0;points=[];" parent="gmqNdXLli_HEFks2CoKf-5" connectable="0" vertex="1">
          <mxGeometry x="0.0118" y="-1" relative="1" as="geometry">
            <mxPoint x="-1" as="offset" />
          </mxGeometry>
        </mxCell>
        <mxCell id="gmqNdXLli_HEFks2CoKf-7" value="" style="html=1;verticalAlign=bottom;labelBackgroundColor=none;endArrow=open;endFill=0;dashed=1;rounded=0;" parent="1" edge="1">
          <mxGeometry width="160" relative="1" as="geometry">
            <mxPoint x="633" y="326" as="sourcePoint" />
            <mxPoint x="498" y="326" as="targetPoint" />
          </mxGeometry>
        </mxCell>
        <mxCell id="gmqNdXLli_HEFks2CoKf-8" value="Text" style="edgeLabel;html=1;align=center;verticalAlign=middle;resizable=0;points=[];" parent="gmqNdXLli_HEFks2CoKf-7" connectable="0" vertex="1">
          <mxGeometry x="-0.0743" relative="1" as="geometry">
            <mxPoint as="offset" />
          </mxGeometry>
        </mxCell>
        <mxCell id="gmqNdXLli_HEFks2CoKf-9" value="returnTripDetails()" style="edgeLabel;html=1;align=center;verticalAlign=middle;resizable=0;points=[];" parent="gmqNdXLli_HEFks2CoKf-7" connectable="0" vertex="1">
          <mxGeometry x="-0.0963" relative="1" as="geometry">
            <mxPoint as="offset" />
          </mxGeometry>
        </mxCell>
        <mxCell id="gmqNdXLli_HEFks2CoKf-10" value="" style="endArrow=classic;html=1;rounded=0;" parent="1" edge="1">
          <mxGeometry width="50" height="50" relative="1" as="geometry">
            <mxPoint x="498" y="345" as="sourcePoint" />
            <mxPoint x="748" y="345" as="targetPoint" />
          </mxGeometry>
        </mxCell>
        <mxCell id="gmqNdXLli_HEFks2CoKf-11" value="generateSuggestions()" style="edgeLabel;html=1;align=center;verticalAlign=middle;resizable=0;points=[];" parent="gmqNdXLli_HEFks2CoKf-10" connectable="0" vertex="1">
          <mxGeometry x="0.0118" y="-1" relative="1" as="geometry">
            <mxPoint as="offset" />
          </mxGeometry>
        </mxCell>
        <mxCell id="evCZhHzDuNR3ehigeFYC-5" value="DailyPlanController" style="rounded=0;whiteSpace=wrap;html=1;fillColor=#FF6666;" parent="1" vertex="1">
          <mxGeometry x="829" y="30" width="130" height="30" as="geometry" />
        </mxCell>
        <mxCell id="SdEpuUqOof8AJtrHMvni-1" value="DailyPlan" style="rounded=0;whiteSpace=wrap;html=1;fillColor=#A9C4EB;" parent="1" vertex="1">
          <mxGeometry x="999" y="30" width="110" height="30" as="geometry" />
        </mxCell>
        <mxCell id="U6eonyWQ-IMANAh0PcAL-1" value="" style="endArrow=classic;html=1;rounded=0;" parent="1" edge="1">
          <mxGeometry width="50" height="50" relative="1" as="geometry">
            <mxPoint x="340" y="566" as="sourcePoint" />
            <mxPoint x="899" y="566" as="targetPoint" />
          </mxGeometry>
        </mxCell>
        <mxCell id="U6eonyWQ-IMANAh0PcAL-2" value="addActivityToDay()" style="edgeLabel;html=1;align=center;verticalAlign=middle;resizable=0;points=[];" parent="U6eonyWQ-IMANAh0PcAL-1" connectable="0" vertex="1">
          <mxGeometry x="0.0118" y="-1" relative="1" as="geometry">
            <mxPoint y="9" as="offset" />
          </mxGeometry>
        </mxCell>
        <mxCell id="U6eonyWQ-IMANAh0PcAL-3" value="" style="endArrow=none;dashed=1;html=1;rounded=0;entryX=0.5;entryY=1;entryDx=0;entryDy=0;" parent="1" edge="1">
          <mxGeometry width="50" height="50" relative="1" as="geometry">
            <mxPoint x="898" y="740" as="sourcePoint" />
            <mxPoint x="893" y="60" as="targetPoint" />
            <Array as="points" />
          </mxGeometry>
        </mxCell>
        <mxCell id="U6eonyWQ-IMANAh0PcAL-4" value="" style="endArrow=none;dashed=1;html=1;rounded=0;entryX=0.5;entryY=1;entryDx=0;entryDy=0;" parent="1" target="SdEpuUqOof8AJtrHMvni-1" edge="1">
          <mxGeometry width="50" height="50" relative="1" as="geometry">
            <mxPoint x="1054" y="740" as="sourcePoint" />
            <mxPoint x="1054" y="200" as="targetPoint" />
            <Array as="points">
              <mxPoint x="1053" y="510" />
            </Array>
          </mxGeometry>
        </mxCell>
        <mxCell id="dXxAJZCw7J9mJ6LGBaIF-1" value="" style="html=1;points=[[0,0,0,0,5],[0,1,0,0,-5],[1,0,0,0,5],[1,1,0,0,-5]];perimeter=orthogonalPerimeter;outlineConnect=0;targetShapes=umlLifeline;portConstraint=eastwest;newEdgeStyle={&quot;curved&quot;:0,&quot;rounded&quot;:0};" parent="1" vertex="1">
          <mxGeometry x="1046" y="580" width="10" height="66" as="geometry" />
        </mxCell>
        <mxCell id="dXxAJZCw7J9mJ6LGBaIF-2" value="addActivity()" style="html=1;verticalAlign=bottom;endArrow=block;curved=0;rounded=0;entryX=0;entryY=0;entryDx=0;entryDy=5;" parent="1" edge="1">
          <mxGeometry relative="1" as="geometry">
            <mxPoint x="896" y="590" as="sourcePoint" />
            <mxPoint x="1046" y="590" as="targetPoint" />
          </mxGeometry>
        </mxCell>
        <mxCell id="dXxAJZCw7J9mJ6LGBaIF-3" value="showSuccessMessage()" style="html=1;verticalAlign=bottom;endArrow=open;dashed=1;endSize=8;curved=0;rounded=0;exitX=0;exitY=1;exitDx=0;exitDy=-5;" parent="1" source="dXxAJZCw7J9mJ6LGBaIF-1" edge="1">
          <mxGeometry relative="1" as="geometry">
            <mxPoint x="896" y="641" as="targetPoint" />
          </mxGeometry>
        </mxCell>
        <mxCell id="-LHY6Uf-HTnF4LJtk77Q-2" value="" style="html=1;verticalAlign=bottom;labelBackgroundColor=none;endArrow=open;endFill=0;dashed=1;rounded=0;" parent="1" edge="1">
          <mxGeometry width="160" relative="1" as="geometry">
            <mxPoint x="894" y="666" as="sourcePoint" />
            <mxPoint x="499" y="666" as="targetPoint" />
          </mxGeometry>
        </mxCell>
        <mxCell id="-LHY6Uf-HTnF4LJtk77Q-3" value="showSuccessMessage()" style="edgeLabel;html=1;align=center;verticalAlign=middle;resizable=0;points=[];" parent="-LHY6Uf-HTnF4LJtk77Q-2" connectable="0" vertex="1">
          <mxGeometry x="-0.0629" y="1" relative="1" as="geometry">
            <mxPoint y="9" as="offset" />
          </mxGeometry>
        </mxCell>
        <mxCell id="Pvgc1VGz6lW9f8LPAK2j-1" value="alt" style="shape=umlFrame;whiteSpace=wrap;html=1;pointerEvents=0;" parent="1" vertex="1">
          <mxGeometry x="93" y="250" width="607" height="270" as="geometry" />
        </mxCell>
        <mxCell id="Pvgc1VGz6lW9f8LPAK2j-2" value="" style="endArrow=none;startArrow=none;endFill=0;startFill=0;endSize=8;html=1;verticalAlign=bottom;dashed=1;labelBackgroundColor=none;dashPattern=10 10;rounded=0;exitX=-0.003;exitY=0.713;exitDx=0;exitDy=0;exitPerimeter=0;entryX=0.997;entryY=0.717;entryDx=0;entryDy=0;entryPerimeter=0;" parent="1" edge="1">
          <mxGeometry width="160" relative="1" as="geometry">
            <mxPoint x="91.17899999999997" y="411.51" as="sourcePoint" />
            <mxPoint x="698.1790000000001" y="412.5899999999999" as="targetPoint" />
          </mxGeometry>
        </mxCell>
        <mxCell id="Pvgc1VGz6lW9f8LPAK2j-3" value="" style="html=1;verticalAlign=bottom;labelBackgroundColor=none;endArrow=open;endFill=0;dashed=1;rounded=0;" parent="1" edge="1">
          <mxGeometry width="160" relative="1" as="geometry">
            <mxPoint x="495" y="440" as="sourcePoint" />
            <mxPoint x="345" y="440" as="targetPoint" />
          </mxGeometry>
        </mxCell>
        <mxCell id="Pvgc1VGz6lW9f8LPAK2j-4" value="returnError(&quot;Sorry, I didn&#39;t undesrtand&quot;)" style="edgeLabel;html=1;align=center;verticalAlign=middle;resizable=0;points=[];" parent="Pvgc1VGz6lW9f8LPAK2j-3" connectable="0" vertex="1">
          <mxGeometry x="-0.1067" y="1" relative="1" as="geometry">
            <mxPoint x="49" y="9" as="offset" />
          </mxGeometry>
        </mxCell>
        <mxCell id="Pvgc1VGz6lW9f8LPAK2j-5" value="" style="html=1;verticalAlign=bottom;labelBackgroundColor=none;endArrow=open;endFill=0;dashed=1;rounded=0;" parent="1" edge="1">
          <mxGeometry width="160" relative="1" as="geometry">
            <mxPoint x="344" y="490" as="sourcePoint" />
            <mxPoint x="50" y="490" as="targetPoint" />
          </mxGeometry>
        </mxCell>
        <mxCell id="Pvgc1VGz6lW9f8LPAK2j-6" value="displayErrorMessage()" style="edgeLabel;html=1;align=center;verticalAlign=middle;resizable=0;points=[];" parent="Pvgc1VGz6lW9f8LPAK2j-5" connectable="0" vertex="1">
          <mxGeometry x="-0.1067" y="1" relative="1" as="geometry">
            <mxPoint x="33" y="9" as="offset" />
          </mxGeometry>
        </mxCell>
        <mxCell id="Sg3zLEH__UjUqaFHmL4X-1" value="[Question is unclear]" style="text;align=center;fontStyle=1;verticalAlign=middle;spacingLeft=3;spacingRight=3;strokeColor=none;rotatable=0;points=[[0,0.5],[1,0.5]];portConstraint=eastwest;html=1;" parent="1" vertex="1">
          <mxGeometry x="93" y="420" width="130" height="26" as="geometry" />
        </mxCell>
        <mxCell id="Sg3zLEH__UjUqaFHmL4X-3" value="[Question is understood]" style="text;align=center;fontStyle=1;verticalAlign=middle;spacingLeft=3;spacingRight=3;strokeColor=none;rotatable=0;points=[[0,0.5],[1,0.5]];portConstraint=eastwest;html=1;" parent="1" vertex="1">
          <mxGeometry x="110" y="290" width="130" height="26" as="geometry" />
        </mxCell>
        <mxCell id="C_cWu09OLoCLdIB_TL3s-2" value="" style="endArrow=classic;html=1;rounded=0;" parent="1" edge="1">
          <mxGeometry width="50" height="50" relative="1" as="geometry">
            <mxPoint x="161" y="170" as="sourcePoint" />
            <mxPoint x="340" y="170" as="targetPoint" />
          </mxGeometry>
        </mxCell>
        <mxCell id="C_cWu09OLoCLdIB_TL3s-3" value="showChatInterface()" style="edgeLabel;html=1;align=center;verticalAlign=middle;resizable=0;points=[];" parent="C_cWu09OLoCLdIB_TL3s-2" connectable="0" vertex="1">
          <mxGeometry x="0.0118" y="-1" relative="1" as="geometry">
            <mxPoint x="-2" y="14" as="offset" />
          </mxGeometry>
        </mxCell>
        <mxCell id="bNDRmD2FdwXVukc4FuVT-1" value="displaySuccessMessage()" style="html=1;verticalAlign=bottom;endArrow=open;dashed=1;endSize=8;curved=0;rounded=0;exitX=0;exitY=1;exitDx=0;exitDy=-5;" parent="1" edge="1">
          <mxGeometry relative="1" as="geometry">
            <mxPoint x="340" y="680" as="targetPoint" />
            <mxPoint x="493" y="680" as="sourcePoint" />
          </mxGeometry>
        </mxCell>
        <mxCell id="bNDRmD2FdwXVukc4FuVT-2" value="&lt;span style=&quot;font-weight: 700;&quot;&gt;AITravelAssistantBoundary&lt;/span&gt;" style="rounded=0;whiteSpace=wrap;html=1;fillColor=#CC99FF;" parent="1" vertex="1">
          <mxGeometry x="87" y="30" width="163" height="30" as="geometry" />
        </mxCell>
        <mxCell id="bNDRmD2FdwXVukc4FuVT-5" value="" style="endArrow=none;dashed=1;html=1;rounded=0;entryX=0.5;entryY=1;entryDx=0;entryDy=0;" parent="1" edge="1">
          <mxGeometry width="50" height="50" relative="1" as="geometry">
            <mxPoint x="161" y="740" as="sourcePoint" />
            <mxPoint x="161" y="60" as="targetPoint" />
            <Array as="points">
              <mxPoint x="160" y="510" />
            </Array>
          </mxGeometry>
        </mxCell>
        <mxCell id="KgMkwzMJA5KkgFJsqEVo-3" value="" style="html=1;verticalAlign=bottom;labelBackgroundColor=none;endArrow=open;endFill=0;dashed=1;rounded=0;" edge="1" parent="1">
          <mxGeometry width="160" relative="1" as="geometry">
            <mxPoint x="340" y="400" as="sourcePoint" />
            <mxPoint x="50" y="400" as="targetPoint" />
          </mxGeometry>
        </mxCell>
        <mxCell id="KgMkwzMJA5KkgFJsqEVo-4" value="displaySuggestions(activities)" style="edgeLabel;html=1;align=center;verticalAlign=middle;resizable=0;points=[];" connectable="0" vertex="1" parent="KgMkwzMJA5KkgFJsqEVo-3">
          <mxGeometry x="-0.0629" y="1" relative="1" as="geometry">
            <mxPoint x="19" y="9" as="offset" />
          </mxGeometry>
        </mxCell>
        <mxCell id="KgMkwzMJA5KkgFJsqEVo-5" value="displaySuccessMessage()" style="html=1;verticalAlign=bottom;endArrow=open;dashed=1;endSize=8;curved=0;rounded=0;" edge="1" parent="1">
          <mxGeometry relative="1" as="geometry">
            <mxPoint x="50" y="700" as="targetPoint" />
            <mxPoint x="340" y="700" as="sourcePoint" />
          </mxGeometry>
        </mxCell>
      </root>
    </mxGraphModel>
  </diagram>
</mxfile>
